<svg width="20" height="20" viewBox="0 0 20 20" fill="none" xmlns="http://www.w3.org/2000/svg">
<path d="M19.7544 18.0246V10.2947C19.7544 9.75689 19.6447 9.22475 19.4319 8.73086C19.2191 8.23697 18.9077 7.79172 18.5168 7.42239L11.2343 0.539971C10.8675 0.19321 10.3819 0 9.87718 0C9.37244 0 8.88684 0.19321 8.52006 0.539971L1.23761 7.42239C0.846696 7.79172 0.535296 8.23697 0.322488 8.73086C0.109679 9.22475 -5.71468e-05 9.75689 2.23259e-08 10.2947V18.0246C2.23259e-08 18.5485 0.208126 19.0509 0.578592 19.4214C0.949058 19.7919 1.45152 20 1.97544 20H17.7789C18.3028 20 18.8053 19.7919 19.1758 19.4214C19.5462 19.0509 19.7544 18.5485 19.7544 18.0246Z" fill="#D975BB"/>
</svg>
