<svg width="24" height="24" viewBox="0 0 24 24" fill="none" xmlns="http://www.w3.org/2000/svg">
<path d="M5.33333 21.75H4C3.80109 21.75 3.61032 21.671 3.46967 21.5303C3.32902 21.3897 3.25 21.1989 3.25 21V15C3.25 14.8011 3.32902 14.6103 3.46967 14.4697C3.61032 14.329 3.80109 14.25 4 14.25H5.33333C5.53224 14.25 5.72301 14.329 5.86366 14.4697C6.00432 14.6103 6.08333 14.8011 6.08333 15V21C6.08333 21.1989 6.00432 21.3897 5.86366 21.5303C5.72301 21.671 5.53225 21.75 5.33333 21.75ZM14.6667 21.75H13.3333C13.1344 21.75 12.9437 21.671 12.803 21.5303C12.6624 21.3897 12.5833 21.1989 12.5833 21V11C12.5833 10.8011 12.6624 10.6103 12.803 10.4697C12.9437 10.329 13.1344 10.25 13.3333 10.25H14.6667C14.8656 10.25 15.0563 10.329 15.197 10.4697C15.3376 10.6103 15.4167 10.8011 15.4167 11V21C15.4167 21.1989 15.3376 21.3897 15.197 21.5303C15.0563 21.671 14.8656 21.75 14.6667 21.75ZM19.3333 21.75H18C17.8011 21.75 17.6103 21.671 17.4697 21.5303C17.329 21.3897 17.25 21.1989 17.25 21V6.33333C17.25 6.13442 17.329 5.94366 17.4697 5.803C17.6103 5.66235 17.8011 5.58333 18 5.58333H19.3333C19.5322 5.58333 19.723 5.66235 19.8637 5.803C20.0043 5.94366 20.0833 6.13442 20.0833 6.33333V21C20.0833 21.1989 20.0043 21.3897 19.8637 21.5303C19.723 21.671 19.5322 21.75 19.3333 21.75ZM10 21.75H8.66667C8.46775 21.75 8.27699 21.671 8.13634 21.5303C7.99568 21.3897 7.91667 21.1989 7.91667 21V3C7.91667 2.80109 7.99568 2.61032 8.13634 2.46967C8.27699 2.32902 8.46775 2.25 8.66667 2.25H10C10.1989 2.25 10.3897 2.32902 10.5303 2.46967C10.671 2.61032 10.75 2.80109 10.75 3V21C10.75 21.1989 10.671 21.3897 10.5303 21.5303C10.3897 21.671 10.1989 21.75 10 21.75Z" fill="white" fill-opacity="0.6" stroke="#261863" stroke-width="0.5"/>
</svg>
