<svg width="21" height="20" viewBox="0 0 21 20" fill="none" xmlns="http://www.w3.org/2000/svg">
<path d="M10.7873 7.32145C10.1876 7.26691 9.58421 7.38439 9.05982 7.65782C8.53543 7.93125 8.11564 8.34726 7.85791 8.84888C7.60019 9.3505 7.51713 9.91322 7.62011 10.46C7.7231 11.0068 8.00709 11.5108 8.43321 11.9032C8.85932 12.2956 9.40673 12.5572 10.0005 12.652C10.5942 12.7468 11.2053 12.6704 11.75 12.433C12.2948 12.1957 12.7465 11.8091 13.0434 11.3262C13.3404 10.8433 13.4679 10.2877 13.4087 9.73547C13.3412 9.11639 13.0433 8.53785 12.5656 8.0979C12.0878 7.65794 11.4595 7.38363 10.7873 7.32145V7.32145ZM17.825 10C17.8231 10.2926 17.7998 10.5847 17.7551 10.8743L19.8199 12.3657C19.9098 12.4343 19.9704 12.53 19.9908 12.6359C20.0113 12.7418 19.9904 12.8509 19.9318 12.9439L17.9785 16.0561C17.9191 16.1482 17.8264 16.2181 17.7166 16.2534C17.6068 16.2887 17.487 16.2872 17.3784 16.2491L15.3278 15.4887C15.2147 15.4473 15.0922 15.4323 14.9713 15.4451C14.8504 15.458 14.7348 15.4983 14.635 15.5623C14.322 15.7608 13.9931 15.9371 13.6512 16.0897C13.5437 16.1378 13.4508 16.2096 13.3805 16.2986C13.3102 16.3877 13.2649 16.4913 13.2484 16.6003L12.9411 18.6143C12.9209 18.7207 12.8612 18.8173 12.7722 18.8877C12.6833 18.958 12.5705 18.9977 12.4533 19H8.5467C8.4314 18.9982 8.32022 18.9602 8.23148 18.8924C8.14273 18.8246 8.08172 18.731 8.05848 18.627L7.75158 16.6158C7.73435 16.5056 7.68781 16.401 7.6161 16.3114C7.54439 16.2217 7.44974 16.1498 7.34055 16.1019C6.99904 15.9501 6.6713 15.7733 6.36048 15.5733C6.26096 15.5095 6.14578 15.4696 6.02531 15.457C5.90484 15.4444 5.78288 15.4597 5.6704 15.5014L3.62028 16.2613C3.51163 16.2994 3.39187 16.301 3.2821 16.2657C3.17232 16.2305 3.07956 16.1607 3.02017 16.0687L1.06687 12.9565C1.00815 12.8636 0.987159 12.7544 1.00765 12.6485C1.02814 12.5426 1.08878 12.4469 1.17876 12.3783L2.92381 11.1166C3.01941 11.0467 3.09455 10.9559 3.1424 10.8525C3.19026 10.7491 3.20931 10.6363 3.19783 10.5244C3.18139 10.3491 3.17134 10.1741 3.17134 9.99874C3.17134 9.82336 3.18093 9.65093 3.19783 9.47935C3.20805 9.36812 3.18807 9.2563 3.13968 9.15396C3.09128 9.05161 3.016 8.96196 2.92061 8.89308L1.17648 7.6314C1.08795 7.56247 1.02859 7.46705 1.0088 7.36185C0.989014 7.25666 1.01006 7.14841 1.06824 7.05607L3.02154 3.94393C3.08086 3.85182 3.17359 3.78195 3.28337 3.74664C3.39315 3.71132 3.51295 3.71283 3.62165 3.75089L5.67223 4.51126C5.78531 4.55272 5.90779 4.5677 6.02871 4.55486C6.14962 4.54201 6.26518 4.50175 6.36504 4.43766C6.678 4.23921 7.00685 4.06291 7.34877 3.91028C7.45627 3.86217 7.54925 3.79042 7.6195 3.70138C7.68975 3.61234 7.73511 3.50873 7.75158 3.39972L8.05894 1.38565C8.07913 1.27929 8.1388 1.18268 8.22777 1.11233C8.31673 1.04199 8.42946 1.00229 8.5467 1H12.4533C12.5686 1.00184 12.6798 1.03979 12.7685 1.10759C12.8573 1.1754 12.9183 1.26902 12.9415 1.37304L13.2484 3.38416C13.2657 3.49437 13.3122 3.59896 13.3839 3.68862C13.4556 3.77828 13.5503 3.85023 13.6594 3.89808C14.001 4.04989 14.3287 4.22667 14.6395 4.42673C14.739 4.49049 14.8542 4.53045 14.9747 4.543C15.0952 4.55556 15.2171 4.54031 15.3296 4.49865L17.3797 3.73869C17.4884 3.70059 17.6081 3.69902 17.7179 3.73426C17.8277 3.7695 17.9204 3.83928 17.9798 3.93131L19.9331 7.04346C19.9919 7.13644 20.0128 7.24559 19.9924 7.35149C19.9719 7.45739 19.9112 7.55315 19.8212 7.62173L18.0762 8.88341C17.9802 8.95307 17.9046 9.04374 17.8563 9.14716C17.8081 9.25058 17.7887 9.36347 17.7999 9.47556C17.815 9.64967 17.825 9.82463 17.825 10Z" stroke="white" stroke-opacity="0.6" stroke-width="2" stroke-linecap="round" stroke-linejoin="round"/>
</svg>
