<svg width="24" height="24" viewBox="0 0 24 24" fill="none" xmlns="http://www.w3.org/2000/svg">
<path d="M21.3368 10.3333H20.6702V6.33333C20.6702 6.15652 20.5999 5.98695 20.4749 5.86193C20.3499 5.7369 20.1803 5.66667 20.0035 5.66667H4.00351C3.84565 5.66924 3.692 5.61571 3.56992 5.5156C3.44783 5.41549 3.36524 5.27531 3.33684 5.12V4.88C3.36524 4.72469 3.44783 4.58451 3.56992 4.4844C3.692 4.38429 3.84565 4.33076 4.00351 4.33333H19.7235C19.9003 4.33333 20.0699 4.2631 20.1949 4.13807C20.3199 4.01305 20.3902 3.84348 20.3902 3.66667C20.3902 3.48986 20.3199 3.32029 20.1949 3.19526C20.0699 3.07024 19.9003 3 19.7235 3H4.00351C3.47308 3 2.96437 3.21071 2.5893 3.58579C2.21422 3.96086 2.00351 4.46957 2.00351 5C1.99883 5.07993 1.99883 5.16007 2.00351 5.24V18.9533C2.00613 19.3123 2.07942 19.6672 2.21921 19.9978C2.35899 20.3284 2.56253 20.6283 2.81821 20.8803C3.07388 21.1322 3.37668 21.3313 3.70931 21.4663C4.04194 21.6012 4.39789 21.6693 4.75684 21.6667H20.0035C20.1803 21.6667 20.3499 21.5964 20.4749 21.4714C20.5999 21.3464 20.6702 21.1768 20.6702 21V17H21.3368C21.5137 17 21.6832 16.9298 21.8082 16.8047C21.9333 16.6797 22.0035 16.5101 22.0035 16.3333V11C22.0035 10.8232 21.9333 10.6536 21.8082 10.5286C21.6832 10.4036 21.5137 10.3333 21.3368 10.3333ZM19.3368 20.3333H4.75684C4.38604 20.3369 4.02883 20.1939 3.7629 19.9355C3.49698 19.6771 3.34386 19.3241 3.33684 18.9533V6.92C3.55324 6.98271 3.77842 7.00973 4.00351 7H19.3368V10.3333H14.6702C13.7861 10.3333 12.9383 10.6845 12.3132 11.3096C11.688 11.9348 11.3368 12.7826 11.3368 13.6667C11.3368 14.5507 11.688 15.3986 12.3132 16.0237C12.9383 16.6488 13.7861 17 14.6702 17H19.3368V20.3333ZM20.6702 15.6667H14.6702C14.1397 15.6667 13.631 15.456 13.256 15.0809C12.8809 14.7058 12.6702 14.1971 12.6702 13.6667C12.6702 13.1362 12.8809 12.6275 13.256 12.2525C13.631 11.8774 14.1397 11.6667 14.6702 11.6667H20.6702V15.6667Z" fill="white" fill-opacity="0.6"/>
<path d="M15.3435 14.668C15.8958 14.668 16.3435 14.2203 16.3435 13.668C16.3435 13.1157 15.8958 12.668 15.3435 12.668C14.7912 12.668 14.3435 13.1157 14.3435 13.668C14.3435 14.2203 14.7912 14.668 15.3435 14.668Z" fill="white" fill-opacity="0.6"/>
</svg>
